<?xml version="1.0" encoding="UTF-8"?>
<svg width="100" height="100" viewBox="0 0 100 100" xmlns="http://www.w3.org/2000/svg">
  <g fill="#FF4B6E">
    <path d="M50 85c19.33 0 35-15.67 35-35S69.33 15 50 15 15 30.67 15 50s15.67 35 35 35zm0 5C27.91 90 10 72.09 10 50S27.91 10 50 10s40 17.91 40 40-17.91 40-40 40z"/>
    <path d="M65 45c0-8.28-6.72-15-15-15s-15 6.72-15 15c0 6.52 4.17 12.06 10 14.1V75h10V59.1c5.83-2.04 10-7.58 10-14.1z"/>
    <path d="M50 35c-2.76 0-5 2.24-5 5s2.24 5 5 5 5-2.24 5-5-2.24-5-5-5z"/>
  </g>
</svg> 